<?xml version="1.0" encoding="utf-8"?>
<!-- Generator: Adobe Illustrator 16.0.0, SVG Export Plug-In . SVG Version: 6.00 Build 0)  -->
<!DOCTYPE svg PUBLIC "-//W3C//DTD SVG 1.1//EN" "http://www.w3.org/Graphics/SVG/1.1/DTD/svg11.dtd">
<svg version="1.1" id="Layer_1" xmlns="http://www.w3.org/2000/svg" xmlns:xlink="http://www.w3.org/1999/xlink" x="0px" y="0px"
	 width="248.039px" height="262.039px" viewBox="0 0 248.039 262.039" enable-background="new 0 0 248.039 262.039"
	 xml:space="preserve">
<g>
	<path fill-rule="evenodd" clip-rule="evenodd" d="M34.216,124.404c-1.327,0.276-1.708,1.429-2.182,2.437
		c-0.858,1.823-1.633,3.685-2.477,5.514c-0.135,0.293-0.447,0.505-0.677,0.755c-0.219-0.27-0.532-0.506-0.641-0.815
		c-0.592-1.686-1.133-3.391-1.792-5.393c-0.302,0.561-0.506,0.873-0.647,1.212c-0.53,1.273-1.013,2.567-1.574,3.826
		c-0.16,0.359-0.525,0.628-0.796,0.938c-0.216-0.316-0.507-0.605-0.635-0.954c-0.627-1.717-1.166-3.467-1.825-5.171
		c-0.471-1.216-0.603-2.654-2.305-3.378c1.957,0,3.537,0,5.118,0c-1.298,0.892-1.301,0.893-0.793,2.48
		c0.374,1.168,0.757,2.333,1.238,3.816c0.788-1.916,1.443-3.562,2.147-5.188c0.158-0.364,0.487-0.655,0.737-0.979
		c0.268,0.35,0.642,0.661,0.785,1.056c0.607,1.67,1.145,3.365,1.804,5.336c0.637-1.42,1.145-2.556,1.656-3.691
		c0.404-0.896,0.306-1.598-0.725-1.972c-0.152-0.055-0.27-0.204-0.626-0.485c1.609,0,2.953,0,4.339,0
		c0.164-1.69,0.226-3.286,0.494-4.846c0.326-1.893,0.824-3.756,1.25-5.632c0.447-1.963,0.766-3.968,1.377-5.878
		c0.833-2.603,1.827-5.161,2.867-7.691c2.868-6.979,6.437-13.588,11.089-19.54c2.52-3.224,5.252-6.3,8.068-9.273
		c6.158-6.501,13.293-11.758,21.156-16.023c5.702-3.093,11.688-5.503,17.935-7.254c2.267-0.635,4.524-1.333,6.826-1.806
		c2.48-0.509,5-0.861,7.519-1.141c1.774-0.197,3.575-0.182,5.365-0.217c1.211-0.023,3.344-1.836,3.613-3.328
		c0.243-1.353,0.295-2.742,0.385-4.119c0.085-1.308-0.026-2.643,0.198-3.923c0.26-1.487-0.416-2.324-1.524-3.049
		c-0.294-0.192-0.524-0.483-0.947-0.885c1.814,0,3.329-0.074,4.828,0.051c0.376,0.032,0.712,0.69,1.044,1.079
		c1.211,1.419,2.4,2.857,3.621,4.268c1.634,1.888,3.29,3.757,4.937,5.635c0.12-0.019,0.239-0.037,0.358-0.055
		c0-2.589,0.062-5.182-0.032-7.768c-0.036-0.995-0.776-1.659-1.747-1.997c-0.31-0.107-0.593-0.292-0.796-0.693
		c1.88,0,3.76,0,5.915,0c-0.295,0.441-0.387,0.75-0.551,0.796c-1.279,0.354-1.671,1.416-1.735,2.483
		c-0.245,4.068-0.372,8.143-0.543,12.219c1.998,0.36,3.91,0.662,5.801,1.061c1.431,0.303,2.834,0.735,4.252,1.102
		c1.543,0.399,3.123,0.693,4.627,1.207c1.901,0.648,3.751,1.452,5.609,2.221c7.005,2.902,13.642,6.485,19.628,11.148
		c3.171,2.471,6.195,5.154,9.118,7.918c5.617,5.314,10.307,11.392,14.275,18.029c3.952,6.612,6.958,13.63,9.059,21.037
		c0.647,2.282,1.372,4.556,1.802,6.881c0.5,2.707,0.733,5.465,1.051,8.204c0.227,1.959,0.549,3.923,0.564,5.887
		c0.023,3.063-0.194,6.128-0.268,9.193c-0.01,0.426,0.217,0.857,0.334,1.286c0.346-0.377,0.954-0.729,0.994-1.136
		c0.187-1.89,0.307-3.799,0.246-5.695c-0.018-0.562-0.705-1.102-1.115-1.695c0.161-0.022,0.4-0.091,0.636-0.083
		c2.134,0.077,4.266,0.199,6.4,0.24c0.838,0.016,1.147,0.34,1.081,1.15c-0.042,0.511-0.008,1.029-0.008,1.889
		c-0.359-0.318-0.622-0.493-0.81-0.728c-0.368-0.461-0.598-1.183-1.062-1.382c-0.698-0.299-1.633-0.482-2.305-0.249
		c-0.414,0.144-0.577,1.141-0.755,1.782c-0.104,0.377-0.019,0.808-0.019,1.26c0.964,0.284,1.692,0.045,2.289-0.716
		c0.157-0.2,0.427-0.312,0.645-0.465c0.092,0.251,0.255,0.501,0.264,0.756c0.033,0.892,0.013,1.785,0.013,2.904
		c-1.357-0.376-1.519-2.44-3.381-1.659c0,0.884-0.066,1.917,0.02,2.938c0.073,0.862,0.932,1.398,1.837,1.04
		c0.945-0.374,1.784-1.017,2.666-1.548c0.354-0.212,0.698-0.44,1.045-0.661c0.088,0.088,0.175,0.176,0.263,0.264
		c-0.25,0.804-0.446,1.63-0.783,2.396c-0.097,0.22-0.6,0.376-0.911,0.368c-2.58-0.074-5.159-0.194-7.696-0.298
		c-2.399,22.509-11.779,41.564-28.471,56.892c-16.707,15.342-36.494,23.101-59.253,23.704c0.579,0.172,1.148,0.416,1.74,0.499
		c0.58,0.082,0.857,0.261,0.869,0.894c0.012,0.666,0.156,1.328,0.246,1.991c0.084,0.622,0.174,1.243,0.264,1.883
		c-0.723,0.299-1.049,0.05-1.232-0.641c-0.431-1.625-1.286-2.973-2.912-3.606c-0.675-0.263-1.452-0.38-2.179-0.368
		c-1.054,0.019-2.188,0.97-2.397,1.91c-0.251,1.123,0.216,2.041,1.153,2.584c1.612,0.934,3.288,1.759,4.952,2.602
		c1.325,0.67,2.584,1.468,3.216,2.841c1.692,3.678-0.285,7.768-4.967,8.208c-2.397,0.226-4.755-0.208-6.979-1.227
		c-0.605-0.277-0.894-0.584-0.848-1.33c0.091-1.471,0.027-2.952,0.027-4.762c0.403,0.366,0.772,0.572,0.951,0.886
		c0.604,1.064,1.035,2.24,1.726,3.24c1.571,2.271,4.669,2.634,6.557,0.869c1.349-1.263,1.361-3.255-0.136-4.389
		c-1.147-0.87-2.497-1.466-3.716-2.247c-1.337-0.856-2.928-1.547-3.875-2.734c-1.908-2.39-0.843-5.454,2.344-7.341
		c-25.125-1.741-46.046-11.96-62.388-30.924C39.133,171.553,32.209,149.451,34.216,124.404z M70.373,178.784
		c1.287-1.007,2.609-1.974,3.852-3.033c1.371-1.168,2.636-2.461,4.007-3.629c1.404-1.194,1.424-1.493-0.113-2.53
		c-0.236,0.161-0.53,0.282-0.711,0.498c-1.301,1.545-2.595,3.097-3.861,4.671c-1.071,1.332-2.102,2.696-3.149,4.045
		c-1.381,0.077-1.223,1.743-2.313,2.12C68.943,180.811,70.121,179.646,70.373,178.784z M67.645,71.872
		c0.287,0.078,0.625,0.083,0.85,0.245c0.896,0.646,1.835,1.266,2.604,2.046c0.551,0.559,0.81,0.333,1.286-0.012
		c3.523-2.547,6.953-5.252,10.643-7.534c2.957-1.829,6.214-3.185,9.381-4.658c3.753-1.747,7.702-2.951,11.751-3.768
		c3.017-0.609,6.062-1.121,9.118-1.473c2.709-0.313,5.451-0.355,8.179-0.497c0.559-0.029,1.137,0.117,1.679,0.023
		c0.358-0.062,0.815-0.335,0.968-0.643c0.414-0.833,0.654-1.751,1.035-2.604c0.162-0.363,0.501-0.648,0.761-0.968
		c0.243,0.325,0.58,0.616,0.709,0.98c0.326,0.911,0.529,1.866,0.846,2.781c0.092,0.266,0.367,0.591,0.618,0.655
		c0.885,0.226,1.793,0.377,2.699,0.506c1.911,0.273,3.856,0.375,5.732,0.796c4.825,1.082,9.547,2.516,14.107,4.466
		c4.427,1.893,8.721,4.048,12.588,6.918c3.372,2.503,6.601,5.201,9.842,7.875c1.518,1.253,2.913,2.654,4.333,3.959
		c0.709-1.003,4.898-3.574,5.832-3.278c-1.533,1.793-3.015,3.525-4.362,5.101c2.28,3.249,4.64,6.194,6.529,9.417
		c2.133,3.64,3.919,7.492,5.703,11.323c0.85,1.826,1.449,3.79,1.976,5.742c0.931,3.44,2.008,6.88,2.494,10.393
		c0.579,4.186,0.59,8.449,0.876,12.677c0.021,0.314,0.201,0.792,0.434,0.889c2.27,0.944,4.566,1.823,6.831,2.71
		c0.995-1.404,2.137-1.917,3.206-1.464c1.049,0.445,1.19,1.332,1.086,2.332c-0.091,0.871-0.485,1.501-1.385,1.667
		c-1.241,0.229-2.251-0.43-2.879-1.855c-2.231,0.659-4.475,1.3-6.7,2.001c-0.354,0.112-0.833,0.454-0.896,0.763
		c-0.595,2.903-1.111,5.823-1.652,8.737c-0.791,4.257-2.197,8.325-3.936,12.269c-1.137,2.579-2.447,5.086-3.762,7.582
		c-2.65,5.03-6.106,9.495-9.926,13.672c-1.246,1.362-2.766,2.473-4.068,3.617c1.62,2.291,2.979,4.149,4.25,6.066
		c0.232,0.35,0.1,0.941,0.137,1.421l0.023-0.023c-0.449-0.356-0.909-0.701-1.345-1.073c-1.447-1.232-2.886-2.476-4.332-3.718
		c0.191-0.373,0.345-0.673,0.507-0.989c-0.161-0.053-0.262-0.116-0.291-0.092c-1.025,0.842-2.024,1.717-3.066,2.537
		c-3.543,2.79-7.231,5.346-11.196,7.533c-5.478,3.022-11.215,5.329-17.26,6.892c-5.182,1.341-10.433,2.229-15.801,2.307
		c-0.872,0.013-1.571,0.212-1.849,1.207c-0.231,0.825-0.603,1.611-0.92,2.411c-0.667,1.682-1.339,3.363-2.091,5.247
		c-0.281-0.423-0.505-0.635-0.578-0.89c-0.68-2.393-1.345-4.79-1.988-7.192c-0.192-0.716-0.566-0.938-1.334-0.999
		c-2.653-0.213-5.345-0.334-7.93-0.907c-4.269-0.946-8.536-2.006-12.673-3.406c-4.28-1.449-8.413-3.346-12.215-5.851
		c-2.766-1.823-5.582-3.589-8.211-5.597c-2.48-1.894-4.744-4.071-7.181-6.191c-0.49,0.334-1.035,0.718-1.592,1.083
		c-0.955,0.626-1.905,1.262-2.888,1.841c-0.191,0.112-0.523-0.014-0.79-0.03c0.099-0.25,0.138-0.551,0.305-0.74
		c1.136-1.286,2.299-2.548,3.438-3.801c-0.077-0.183-0.099-0.301-0.165-0.383c-0.187-0.234-0.384-0.46-0.59-0.678
		c-3.756-3.964-6.921-8.375-9.551-13.141c-1.716-3.11-3.285-6.324-4.639-9.606c-1.184-2.869-2.131-5.86-2.896-8.871
		c-0.728-2.865-1.175-5.812-1.579-8.747c-0.354-2.574-0.527-5.177-0.672-7.773c-0.04-0.711-0.187-1.07-0.861-1.318
		c-1.341-0.493-2.65-1.073-3.979-1.62c-0.872,1.795-2.841,1.979-5.111,0.285c-0.153,15.421,3.005,29.975,10.306,43.518
		c11.201,20.777,28.331,34.412,50.7,41.566c6.59,2.108,13.399,3.214,20.362,3.74c-0.092-0.912-0.234-1.647-0.226-2.381
		c0.015-1.372,0.826-1.996,2.321-1.883c1.253,0.095,1.921,0.916,1.753,2.21c-0.09,0.692-0.25,1.375-0.402,2.194
		c0.568,0.029,1.043,0.101,1.513,0.07c1.256-0.085,2.507-0.252,3.764-0.315c1.901-0.097,3.817-0.025,5.706-0.226
		c1.842-0.196,3.661-0.632,5.485-0.983c2.733-0.525,5.513-0.894,8.183-1.649c3.513-0.994,7.02-2.104,10.388-3.504
		c11.199-4.658,21.137-11.201,29.491-20.083c6.693-7.115,12.077-15.089,16.061-23.996c1.236-2.763,2.295-5.609,3.338-8.453
		c0.59-1.61,1.006-3.287,1.46-4.944c0.371-1.355,0.704-2.723,1.009-4.094c0.227-1.017,0.398-2.047,0.562-3.076
		c0.232-1.46,0.467-2.921,0.641-4.389c0.131-1.103,0.163-2.218,0.25-3.327c0.192-2.473,0.499-4.944,0.551-7.419
		c0.04-1.893-0.26-3.791-0.371-5.689c-0.073-1.254,0.021-2.526-0.14-3.767c-0.234-1.814-0.612-3.61-0.958-5.408
		c-0.526-2.732-0.946-5.493-1.643-8.182c-1.683-6.501-4.192-12.698-7.398-18.594c-4.819-8.864-10.886-16.75-18.534-23.391
		c-6.132-5.325-12.811-9.812-20.18-13.217c-3.2-1.479-6.521-2.698-9.806-3.984c-1.227-0.48-2.497-0.868-3.773-1.198
		c-1.342-0.347-2.719-0.551-4.071-0.86c-1.648-0.377-3.271-0.877-4.931-1.179c-1.416-0.256-2.871-0.286-4.304-0.453
		c-1.853-0.216-3.698-0.618-5.553-0.67c-2.813-0.08-5.633,0.077-8.45,0.126c-1.459,0.025-2.933-0.085-4.375,0.082
		c-2.276,0.264-4.54,0.662-6.793,1.09c-3.065,0.583-6.153,1.104-9.163,1.907c-5.502,1.468-10.76,3.613-15.841,6.189
		c-6.625,3.358-12.757,7.463-18.257,12.442c-2.759,2.498-5.353,5.209-7.789,8.025c-5.906,6.828-10.589,14.447-14.024,22.803
		c-1.15,2.799-2.142,5.667-3.126,8.531c-0.531,1.547-0.963,3.137-1.312,4.736c-0.36,1.647-0.565,3.328-0.839,4.994
		c-0.259,1.573-0.548,3.141-0.77,4.719c-0.151,1.08-0.175,2.176-0.317,3.257c-0.122,0.925-0.332,1.839-0.534,2.927
		c0.685-0.333,1.098-0.582,1.543-0.743c1.565-0.566,2.867-0.01,3.638,1.376c0.142,0.255,0.801,0.39,1.168,0.317
		c0.912-0.18,1.78-0.587,2.692-0.762c0.907-0.174,1.163-0.623,1.233-1.518c0.244-3.121,0.409-6.267,0.953-9.342
		c0.999-5.65,2.654-11.143,4.99-16.39c2.191-4.921,4.872-9.581,8.06-13.938c2.701-3.692,5.751-7.081,9.022-10.266
		c0.746-0.726,1.05-1.258,0.27-2.077c-0.217-0.229-0.411-0.493-0.558-0.771c-0.402-0.766-0.773-1.547-1.156-2.322L67.645,71.872z
		 M48.296,127.358c0.286,0,0.402,0.024,0.505-0.003c4.75-1.292,9.493-2.607,14.251-3.865c0.797-0.21,0.802-0.787,0.919-1.346
		c0.398-1.902,0.643-3.846,1.187-5.704c0.708-2.415,1.491-4.832,2.524-7.12c1.302-2.886,2.875-5.651,4.364-8.45
		c0.281-0.528,0.735-0.942,0.174-1.573c-0.129-0.145-0.049-0.557,0.055-0.792c0.053-0.119,0.458-0.232,0.561-0.155
		c0.695,0.519,0.949-0.139,1.237-0.48c0.738-0.875,1.372-1.839,2.12-2.705c1.356-1.572,2.766-3.099,4.194-4.69
		c-2.971-4.199-5.921-8.368-8.908-12.589C57.423,91.579,49.992,108.066,48.296,127.358z M122.926,58.7
		c-18.733,0.078-35.197,5.707-49.56,17.565c1.246,1.105,2.342,2.086,3.446,3.056c1.241,1.09,2.507,2.151,3.729,3.262
		c0.939,0.854,1.846,1.745,2.73,2.656c0.878,0.905,1.846,0.981,2.926,0.255c2.404-1.616,4.831-3.2,7.251-4.792
		c0.721-0.474,1.707-0.706,1.652-1.882c-0.001-0.029,0.531-0.114,0.815-0.12c0.432-0.009,0.935,0.183,1.286,0.022
		c4.68-2.144,9.517-3.772,14.614-4.562c1.42-0.22,2.866-0.585,4.27-0.478c0.939,0.072,1.073-0.299,1.306-0.905
		c0.75-1.949,1.503-3.897,2.269-5.84C120.711,64.27,121.773,61.605,122.926,58.7z M175.26,82.361
		c-12.876-13.33-28.386-21-46.826-23.275c0.146,0.602,0.224,0.995,0.337,1.377c0.549,1.864,1.117,3.722,1.659,5.588
		c0.749,2.582,1.459,5.175,2.239,7.748c0.122,0.403,0.457,0.927,0.81,1.042c1.678,0.55,3.423,0.898,5.092,1.469
		c2.201,0.752,4.448,1.462,6.507,2.517c3.329,1.707,6.52,3.68,9.82,5.569c1.015-0.072,1.469-2.003,3.115-1.28
		c-0.303,0.838-0.572,1.566-0.829,2.297c-0.214,0.61-0.084,1.067,0.44,1.531c1.591,1.406,3.122,2.88,4.819,4.461
		C166.616,88.461,170.853,85.471,175.26,82.361z M135.188,161.823c0.366-0.363,0.901-0.664,1.077-1.106
		c1.03-2.598,2.003-5.219,2.918-7.86c0.131-0.378-0.015-1.028-0.281-1.34c-1.648-1.932-3.375-3.796-5.062-5.695
		c-2.971-3.343-5.93-6.698-8.902-10.04c-0.701-0.788-1.436-1.545-2.214-2.379c-0.114,0.24-0.193,0.333-0.198,0.428
		c-0.246,5.722-0.493,11.444-0.706,17.167c-0.012,0.331,0.262,0.673,0.351,0.884c-0.167,0.458-0.428,0.858-0.446,1.269
		c-0.412,9.312-0.803,18.625-1.167,27.939c-0.015,0.394,0.27,0.799,0.33,0.965c-0.165,0.563-0.382,0.987-0.401,1.42
		c-0.292,6.47-0.56,12.941-0.828,19.412c-0.011,0.256,0.035,0.514,0.054,0.77c0.757-1.443,1.28-2.911,1.835-4.366
		c3.06-8.013,6.138-16.018,9.188-24.034c1.537-4.041,3.006-8.107,4.559-12.142C135.531,162.504,135.98,162.019,135.188,161.823z
		 M48.395,133.178c0.432,12.701,3.919,24.302,10.072,35.115c2.498,4.39,5.531,8.415,8.954,12.205
		c3.422-3.996,6.719-7.847,10.013-11.693c-0.112-0.198-0.173-0.336-0.261-0.455c-1.571-2.122-3.143-4.243-4.721-6.36
		c-0.521-0.699-1.044-1.299-2.105-0.99c-0.688,0.201-1.446,0.158-2.173,0.224c-0.078-0.1-0.155-0.201-0.233-0.301
		c0.245-0.314,0.508-0.615,0.729-0.944c0.457-0.679,1.798-0.847,1.239-2.115c-1.27-2.878-2.738-5.688-3.76-8.651
		c-0.999-2.897-1.627-5.935-2.234-8.947c-0.164-0.811-0.432-1.136-1.11-1.4c-2.958-1.152-5.902-2.338-8.854-3.506
		C52.158,134.65,50.361,133.95,48.395,133.178z M193.986,132.135c-0.018-8.759-1.479-17.102-4.309-25.184
		c-2.83-8.085-6.958-15.462-12.538-22.231c-0.623,0.663-1.141,1.186-1.626,1.737c-1.041,1.184-2.065,2.382-3.098,3.574
		c-0.741,0.856-1.482,1.712-2.225,2.567c-0.994,1.144-2.02,2.263-2.956,3.451c-0.181,0.23-0.16,0.821,0.01,1.095
		c1.713,2.762,3.505,5.476,5.204,8.247c0.396,0.646,0.775,0.915,1.517,0.771c0.837-0.162,1.688-0.281,2.538-0.333
		c0.265-0.016,0.687,0.19,0.777,0.404c0.079,0.189-0.146,0.582-0.337,0.794c-0.596,0.665-1.203,1.329-1.874,1.916
		c-0.613,0.536-0.489,1.072-0.231,1.699c0.436,1.062,0.878,2.126,1.237,3.216c1.216,3.684,2.02,7.461,2.386,11.323
		c0.068,0.717,0.37,1.053,1.009,1.28c1.231,0.437,2.442,0.931,3.658,1.408C186.705,129.272,190.278,130.678,193.986,132.135z
		 M69.305,182.432c13.181,12.585,28.614,19.448,46.561,21.157c-0.508-1.605-0.968-3.057-1.428-4.508
		c-1.06-3.349-2.11-6.7-3.193-10.041c-0.113-0.348-0.354-0.815-0.643-0.915c-0.909-0.313-1.882-0.429-2.805-0.708
		c-2.758-0.832-5.559-1.563-8.237-2.604c-2.328-0.905-4.527-2.153-6.751-3.308c-0.639-0.332-1.075-0.252-1.611,0.167
		c-1.041,0.812-2.131,1.561-3.466,2.528c0-0.679-0.075-1.04,0.014-1.354c0.252-0.89,0.583-1.756,0.863-2.638
		c0.253-0.797,0.014-1.394-0.67-1.915c-1.509-1.153-2.971-2.368-4.448-3.562c-1.487-1.204-1.46-1.172-2.987-0.075
		c-2.608,1.874-5.247,3.707-7.881,5.544C71.583,180.925,70.52,181.616,69.305,182.432z M122.092,132.939
		c-21.946-0.903-43.512-1.79-65.413-2.691c0.525,0.329,0.751,0.514,1.008,0.626c5.707,2.491,11.416,4.974,17.125,7.458
		c5.03,2.188,10.06,4.378,15.092,6.564c4.347,1.889,8.702,3.761,13.04,5.67c0.829,0.365,1.402,0.262,2.059-0.403
		c4.273-4.331,8.59-8.618,12.885-12.926C119.218,135.901,120.525,134.542,122.092,132.939z M192.14,135.63
		c0.02-0.097,0.039-0.194,0.059-0.292c-0.686-0.246-1.373-0.484-2.055-0.737c-4.827-1.796-9.649-3.607-14.481-5.392
		c-5.805-2.144-11.617-4.269-17.428-6.396c-5.607-2.053-11.235-4.052-16.812-6.187c-1.06-0.406-1.611-0.151-2.323,0.531
		c-4.151,3.985-8.354,7.915-12.495,11.91c-1.189,1.147-2.229,2.448-3.369,3.712C146.156,133.728,169.148,134.679,192.14,135.63z
		 M171.688,183.754c8.541-8.483,14.648-18.281,18.44-29.516c1.57-4.651,2.623-9.428,3.29-14.41c-0.483,0.106-0.779,0.148-1.06,0.236
		c-4.525,1.412-9.033,2.881-13.583,4.212c-1.187,0.348-1.726,0.9-2.064,2.083c-0.715,2.494-1.465,5.008-2.541,7.359
		c-1.276,2.79-2.906,5.418-4.393,8.112c-0.325,0.589-0.402,1.068,0.102,1.667c0.979,1.167,1.876,2.408,2.747,3.66
		c0.195,0.28,0.177,0.735,0.167,1.107c-0.002,0.075-0.443,0.248-0.626,0.193c-1.766-0.531-3.515-1.119-5.284-1.64
		c-0.24-0.071-0.656,0.05-0.832,0.234c-1.005,1.049-1.958,2.148-2.938,3.223c-0.417,0.457-0.451,0.839-0.024,1.364
		c0.732,0.902,1.368,1.883,2.04,2.834C167.278,177.513,169.426,180.555,171.688,183.754z M125.134,65.223
		c-0.094-0.023-0.188-0.046-0.282-0.069c-0.08,0.195-0.168,0.388-0.24,0.586c-1.077,2.979-2.14,5.962-3.228,8.936
		c-2.563,7.005-5.134,14.007-7.709,21.008c-2.461,6.692-4.942,13.378-7.372,20.083c-0.158,0.435-0.144,1.183,0.126,1.478
		c1.105,1.207,2.349,2.287,3.527,3.429c2.693,2.609,5.369,5.237,8.071,7.837c1.337,1.286,2.717,2.527,4.336,4.028
		C123.296,109.893,124.215,87.558,125.134,65.223z M150.618,188.341c-0.564-0.269-0.957-0.35-1.196-0.587
		c-1.264-1.252-2.466-2.567-3.749-3.8c-0.222-0.213-0.782-0.284-1.089-0.167c-2.278,0.868-4.495,1.908-6.803,2.678
		c-1.925,0.643-3.934,1.061-5.932,1.448c-1.19,0.231-1.987,0.64-2.441,1.886c-1.33,3.646-2.794,7.244-4.205,10.86
		c-0.37,0.948-0.736,1.896-1.174,3.024c17.12-0.936,32.028-6.847,45.206-17.663c-2.064-1.792-4.038-3.515-6.021-5.226
		c-1.95-1.682-3.912-3.35-5.763-4.935c-2.504,1.709-4.857,3.283-7.161,4.926c-0.315,0.225-0.57,0.82-0.529,1.21
		C149.97,183.984,150.285,185.961,150.618,188.341z M79.771,103.302c0.222,0.191,0.425,0.4,0.66,0.563
		c4.591,3.196,9.206,6.361,13.769,9.599c1.112,0.789,2.141,1.239,3.471,0.622c0.604-0.279,1.27-0.527,1.923-0.576
		c1.706-0.127,2.589-1.117,3.061-2.628c0.197-0.634,0.379-1.273,0.497-1.67c-1.232-0.924-2.374-1.781-3.576-2.683
		c-0.042,0.33-0.067,0.523-0.104,0.813c-1.066-1.352-1.956-1.739-3.044-1.306c0.689,0.599,1.336,1.16,1.982,1.721
		c-0.065,0.096-0.13,0.192-0.195,0.289c-0.714-0.475-1.614-0.812-2.097-1.458c-0.67-0.898-1.321-1.349-2.534-1.023
		c0.237,0.368,0.423,0.656,0.609,0.945c-1.926-2.254-4.298-3.158-7.272-2.521c0.057-0.183,0.137-0.436,0.242-0.773
		c-1.029-0.237-1.995-0.459-2.961-0.682c-0.405-0.093-1.015-0.401-1.181-0.244c-0.689,0.658-0.994,0.239-1.387-0.283
		c-0.155-0.206-0.437-0.316-0.544-0.39C80.608,102.231,80.216,102.733,79.771,103.302z M93.598,174.428
		c0.111-0.076,0.191-0.104,0.23-0.161c2.816-4.044,5.636-8.085,8.424-12.148c0.17-0.248,0.189-0.704,0.098-1.009
		c-0.702-2.365-1.436-4.72-2.196-7.067c-0.088-0.272-0.345-0.578-0.603-0.691c-0.877-0.387-1.79-0.696-2.737-1.052
		c-0.491,1.859-0.952,3.626-1.424,5.391c-1.301,4.854-2.613,9.706-3.893,14.566c-0.07,0.265,0.012,0.72,0.199,0.873
		C92.293,173.621,92.97,174.011,93.598,174.428z M150.348,103.736c0.179-0.248,0.47-0.529,0.606-0.872
		c0.241-0.606,0.392-1.248,0.57-1.878c0.393-1.392,0.792-2.781,1.158-4.18c0.109-0.418,0.114-0.864,0.167-1.297
		c-0.093-0.029-0.186-0.059-0.279-0.088c0.276-0.237,0.552-0.475,0.739-0.636c-0.244-0.384-0.443-0.703-0.647-1.018
		c-0.214-0.331-0.406-0.903-0.656-0.93c-0.35-0.038-0.881,0.234-1.097,0.541c-2.853,4.057-5.678,8.134-8.463,12.237
		c-0.247,0.364-0.323,0.987-0.216,1.425c0.397,1.631,0.883,3.243,1.387,4.845c0.097,0.308,0.371,0.656,0.656,0.791
		c0.806,0.385,1.682,0.623,2.489,1.005c0.784,0.371,1.074,0.063,1.241-0.667c0.254-1.114,0.508-2.232,0.841-3.324
		c0.531-1.734,1.14-3.444,1.678-5.175C150.587,104.304,150.417,104.021,150.348,103.736z M153.989,155.917
		c-1.245-0.008-1.778-0.685-2.205-1.72c-0.201-0.487-0.834-0.796-1.272-1.186c-0.072,0.077-0.143,0.153-0.215,0.23
		c0.364,0.454,0.729,0.907,1.092,1.36c-0.675-0.148-1.132-0.522-1.646-0.785c-0.322-0.165-0.768-0.301-1.092-0.211
		c-1.687,0.467-3.356,0.999-5.022,1.537c-0.298,0.096-0.687,0.264-0.803,0.508c-0.47,0.992-0.85,2.027-1.304,3.146
		c2.483,0.718,4.796,1.387,7.109,2.055c3.041,0.878,6.1,1.697,9.116,2.652c1.844,0.584,1.925,0.648,3.1-0.814
		c0.115-0.143,0.267-0.257,0.382-0.4c0.706-0.878,0.29-1.905-0.88-2.171c0.173,0.248,0.344,0.493,0.48,0.688
		c-2.02-0.001-2.24-2.526-3.931-2.991c-0.061,0.087-0.122,0.173-0.183,0.261c0.081,0.161,0.161,0.321,0.388,0.776
		c-0.528-0.39-0.778-0.575-1.035-0.765c0.183-0.287,0.328-0.514,0.339-0.531c-0.488-0.525-0.87-0.937-1.244-1.338
		c-0.312,0.48-0.544,0.839-0.651,1.005c-0.566-0.398-1.002-0.705-1.449-1.02C153.321,156.124,153.655,156.021,153.989,155.917z
		 M72.661,120.806c4.328-1.189,8.41-2.312,12.741-3.502c-2.544-3.458-4.965-6.75-7.47-10.155
		C75.584,111.477,73.767,115.85,72.661,120.806z M135.689,84.236c1.182,4.021,2.275,7.741,3.423,11.646
		c2.902-2.11,5.614-4.081,8.456-6.147C143.821,87.395,140.057,85.594,135.689,84.236z M134.366,45.158
		c-3.757-4.327-7.265-8.367-10.833-12.476c-0.462,1.493-0.534,7.835-0.151,9.008c0.328,1.004,2.531,2.717,3.56,2.748
		c1.07,0.031,2.148-0.031,3.21,0.075C131.456,44.642,132.746,44.903,134.366,45.158z M67.087,122.192
		c2.452-0.129,3.054-0.52,3.512-2.436c1.17-4.896,3.042-9.498,5.617-13.82c0.151-0.253,0.279-0.712,0.154-0.907
		c-0.589-0.922-1.27-1.786-1.938-2.699C70.688,108.536,68.376,115.129,67.087,122.192z M134.001,78.231
		c0.29,1.047,0.473,1.926,0.792,2.753c0.134,0.347,0.505,0.735,0.852,0.847c3.88,1.255,7.701,2.697,11.072,5.001
		c1.952,1.334,3.532,1.652,5.183-0.238c0.093-0.106,0.221-0.183,0.446-0.366C146.72,82.453,140.729,79.762,134.001,78.231z
		 M98.39,81.351c0.902,0.905,1.659,1.716,2.485,2.447c0.169,0.149,0.637,0.086,0.909-0.024c3.814-1.548,7.75-2.642,11.826-3.234
		c0.307-0.044,0.762-0.168,0.858-0.384c0.459-1.029,0.817-2.102,1.262-3.294C109.632,77.519,103.968,78.883,98.39,81.351z
		 M76.648,156.267c4.556-2.282,8.866-4.441,13.403-6.714c-2.395-0.944-4.495-1.814-6.635-2.574c-0.36-0.128-1.004,0.1-1.322,0.382
		c-0.778,0.688-1.441,1.505-2.19,2.312c0.042,0.161,0.126,0.484,0.164,0.631c-2.03,0.199-2.412,2.287-4.078,2.882
		c0.344,0.242,0.499,0.35,0.696,0.489C75.47,154.504,76.683,155.245,76.648,156.267z M102.901,85.495
		c-0.035,0.169-0.07,0.338-0.105,0.507c2.3,2.131,4.6,4.262,6.914,6.407c1.187-3.043,2.407-6.172,3.626-9.301
		c-0.093-0.131-0.186-0.262-0.279-0.392C109.672,83.643,106.287,84.569,102.901,85.495z M102.626,86.912
		c-0.066-0.091-0.132-0.183-0.198-0.274c-0.556,0.247-1.112,0.493-1.941,0.861c0.569-0.537,0.913-0.862,1.258-1.187
		c-0.081-0.087-0.161-0.174-0.241-0.261c-0.348,0.262-0.697,0.523-1.014,0.762c-0.19-0.23-0.368-0.445-0.545-0.66
		c-0.099,0.064-0.199,0.129-0.298,0.193c2.294,4.652,4.588,9.304,7.005,14.205c0.955-2.434,1.784-4.548,2.608-6.648
		c-1.148-0.792-1.328-2.587-3.018-2.737c0.096-0.754-1.57-2.232-2.562-2.145c-0.016-0.1-0.019-0.206-0.051-0.301
		c-0.11-0.327-0.23-0.65-0.347-0.975c-0.09,0.046-0.181,0.092-0.271,0.138c0.038,0.288,0.075,0.576,0.127,0.979
		c-0.413-0.365-0.711-0.628-1.05-0.928C102.264,87.601,102.445,87.256,102.626,86.912z M138.875,166.379
		c-0.106-0.005-0.212-0.009-0.319-0.014c-0.805,2.026-1.572,4.068-2.434,6.069c-0.343,0.795-0.186,1.307,0.424,1.849
		c1.224,1.089,2.388,2.244,3.619,3.325c0.254,0.223,0.749,0.419,1.026,0.322c0.931-0.327,1.814-0.792,2.82-1.25
		C142.247,173.144,140.561,169.761,138.875,166.379z M84.644,166.27c3.035-2.724,5.975-5.363,8.916-8.002
		c-0.041-0.087-0.081-0.174-0.122-0.261c-4.526,0.612-9.053,1.225-13.838,1.873c0.957,1.317,1.72,2.368,2.517,3.466
		c1.064-1.255,1.957-2.377,2.935-3.417c0.268-0.285,0.795-0.327,1.203-0.48c0.038,0.099,0.076,0.198,0.113,0.297
		c-1.015,1.186-2.059,2.348-3.023,3.573c-0.236,0.3-0.424,0.937-0.267,1.189C83.479,165.154,84.088,165.67,84.644,166.27z
		 M98.41,176.45c3.311,1.66,6.457,2.884,9.982,3.781c-1-3.115-1.923-5.99-2.885-8.988C103.093,173.014,100.865,174.648,98.41,176.45
		z M81.633,146.375c-3.07-1.222-5.977-2.378-8.883-3.534c-0.109,0.085-0.218,0.171-0.327,0.256c1.016,3.123,2.032,6.246,3.149,9.68
		C77.699,150.53,79.573,148.551,81.633,146.375z M159.069,99.625c-0.285,0.211-0.472,0.326-0.631,0.472
		c-2.336,2.139-4.626,4.332-7.025,6.399c-0.857,0.739-1.318,1.532-1.445,2.835c0.878-0.134,1.662-0.373,2.436-0.349
		c1.922,0.06,3.293-0.754,4.269-2.357c0.151-0.249,0.366-0.46,0.56-0.682c1.195-1.369,2.394-2.737,3.606-4.123
		C160.207,101.037,159.656,100.353,159.069,99.625z M88.463,94.193c3.167,3.48,6.282,6.903,9.397,10.326
		c0.103-0.033,0.205-0.065,0.308-0.097c-0.165-1.451-0.333-2.902-0.491-4.354c-0.103-0.942-0.251-1.681-1.203-2.37
		c-1.916-1.388-3.578-3.126-5.375-4.685c-0.214-0.186-0.716-0.314-0.916-0.192C89.591,93.183,89.083,93.684,88.463,94.193z
		 M67.216,140.638c0.833,5.604,2.655,10.614,4.944,15.592c0.357-0.296,0.651-0.515,0.914-0.765c0.214-0.205,0.478-0.42,0.564-0.682
		c0.121-0.369,0.228-0.826,0.117-1.174c-1.177-3.692-2.393-7.373-3.615-11.051c-0.109-0.33-0.255-0.763-0.517-0.905
		C68.917,141.268,68.139,141.014,67.216,140.638z M156.349,117.115c0.151,0.236,0.188,0.372,0.267,0.404
		c1.931,0.785,3.86,1.578,5.81,2.312c0.241,0.091,0.691-0.041,0.89-0.23c1.45-1.386,2.866-2.808,4.274-4.237
		c0.132-0.134,0.24-0.435,0.182-0.592c-0.372-1-0.794-1.981-1.306-3.229c-0.277,0.661-0.562,1.045-0.575,1.439
		c-0.021,0.619-0.03,0.689-0.598,0.635c-0.3-0.029-0.634,0.013-0.915,0.121c-0.601,0.231-1.177,0.526-1.788,0.805
		c0.018,0.056,0.071,0.229,0.126,0.405c-0.664,0.191-1.246-1.084-1.943,0.194c0.196,0.074,0.437,0.164,0.694,0.26
		c-0.596,0.472-1.024,0.81-1.512,1.196c0.048-0.512,0.083-0.88,0.118-1.248C158.954,117.534,158.539,117.571,156.349,117.115z
		 M147.088,161.288c0.137,1.438,0.203,2.809,0.43,4.152c0.085,0.508,0.471,1.026,0.847,1.415c1.044,1.077,2.091,2.174,3.276,3.082
		c0.429,0.328,1.017,1.173,1.815,0.498c0.646-0.545,1.251-1.138,1.902-1.734c-1.815-2.008-3.596-3.854-5.221-5.829
		C149.333,161.894,148.404,161.422,147.088,161.288z M168.638,147.861c-0.118-0.098-0.236-0.196-0.355-0.293
		c-2.662,0.836-5.324,1.673-8.143,2.559c1.599,2.175,3.076,4.185,4.763,6.479C166.231,153.496,167.435,150.679,168.638,147.861z
		 M95.373,82.764c-0.525,0.297-0.857,0.467-1.172,0.666c-2.258,1.43-4.512,2.867-6.768,4.301c-0.445,0.283-0.724,0.657-0.195,1.051
		c0.818,0.61,1.697,1.139,2.576,1.72c1.915-1.213,3.896-2.462,5.866-3.73c0.123-0.079,0.23-0.315,0.211-0.46
		C95.744,85.175,95.564,84.044,95.373,82.764z M175.163,124.598c-0.36-4.417-1.433-8.55-3.025-12.777
		c-0.664,0.69-1.29,1.188-1.699,1.825c-0.252,0.393-0.331,1.038-0.217,1.502c0.542,2.211,1.378,4.368,1.72,6.604
		C172.236,123.671,173.384,124.21,175.163,124.598z M173.591,146.112c-1.946,0.137-2.226,0.443-2.877,2.052
		c-1.214,2.999-2.489,5.976-3.837,8.916c-0.702,1.53-0.717,1.799,0.806,2.958C170.237,155.647,172.255,151.044,173.591,146.112z
		 M109.695,184.657c-0.176-1.462-0.778-1.951-1.893-2.323c-3.318-1.108-6.6-2.346-9.826-3.7c-1.724-0.724-1.891-0.84-3.257,0.66
		C99.438,181.756,104.328,183.594,109.695,184.657z M165.357,98.567c-0.827,0.683-1.413,1.261-2.09,1.699
		c-0.611,0.396-0.573,0.805-0.246,1.299c1.21,1.826,2.432,3.644,3.658,5.476c1.035-0.118,2.083-0.237,3.447-0.392
		C168.433,103.778,166.867,101.125,165.357,98.567z M76.245,99.527c1.113,0.274,1.962,0.409,2.755,0.7
		c0.688,0.253,1.078,0.061,1.51-0.468c0.821-1.006,1.705-1.96,2.576-2.925c0.608-0.673,1.224-1.295,0.257-2.186
		c-0.398-0.366-0.695-0.865-0.963-1.345c-0.4-0.72-0.781-0.527-1.195-0.048c-0.794,0.919-1.618,1.816-2.367,2.771
		C77.958,97.121,77.165,98.268,76.245,99.527z M91.256,91.946c1.998,1.74,3.824,3.332,5.651,4.923
		c0.092-0.073,0.183-0.147,0.275-0.221c-0.331-2.515-0.662-5.03-1.031-7.839C94.417,89.921,92.897,90.894,91.256,91.946z
		 M164.411,107.421c-0.654-1.099-1.182-1.992-1.715-2.88c-1.13-1.879-1.131-1.878-2.638-0.312c-0.076,0.08-0.198,0.116-0.27,0.198
		c-1.11,1.261-2.216,2.526-3.323,3.791c0.05,0.081,0.1,0.161,0.15,0.242C159.131,108.125,161.647,107.79,164.411,107.421z
		 M169.862,185.606c0-0.317,0.126-0.725-0.024-0.933c-0.401-0.554-0.929-1.015-1.392-1.526c-1.424-1.574-2.835-3.161-4.263-4.732
		c-1.45-1.596-2.914-3.179-4.455-4.858c-0.593,0.563-1.113,1.058-1.695,1.611c2.326,1.98,4.522,3.826,6.688,5.708
		c0.689,0.599,1.207,1.432,1.958,1.914C167.851,183.542,169.048,184.201,169.862,185.606z M131.591,185.076
		c3.878-1.179,7.579-2.304,11.364-3.455c-0.998-1.561-1.303-1.599-2.669-1.121c-2.285,0.8-4.58,1.604-6.924,2.194
		C132.136,183.003,131.733,183.645,131.591,185.076z M168.305,116.135c-0.146-0.062-0.292-0.124-0.438-0.186
		c-1.255,1.433-2.51,2.866-3.854,4.401c1.878,0.732,3.785,1.476,6.018,2.346C169.391,120.263,168.848,118.199,168.305,116.135z
		 M133.252,180.213c0.067,0.085,0.134,0.17,0.201,0.255c2.089-0.657,4.177-1.314,5.747-1.808c-1.108-1.399-2.267-2.862-3.583-4.525
		C134.744,176.38,133.998,178.297,133.252,180.213z M80.793,164.821c-1.168-1.597-2.286-3.124-3.417-4.669
		c-0.859,0.093-1.713,0.186-2.925,0.317c1.581,2.249,2.995,4.26,4.522,6.433C79.648,166.131,80.186,165.516,80.793,164.821z
		 M160.431,92.789c-1.471-1.317-2.808-2.514-4.286-3.837c-0.416,1.294-0.77,2.311-1.053,3.347c-0.061,0.221,0.072,0.569,0.232,0.761
		c0.333,0.397,0.753,0.719,1.119,1.09c0.593,0.601,1.147,0.87,1.9,0.159C158.927,93.758,159.646,93.351,160.431,92.789z
		 M82.009,101.017c2.473,0.625,4.629,1.169,6.786,1.715c0.039-0.084,0.078-0.167,0.117-0.251c-1.208-1.677-2.416-3.355-3.75-5.206
		C84.101,98.535,83.136,99.68,82.009,101.017z M84.049,172.01c1.731,1.354,3.41,2.672,5.104,3.972
		c0.11,0.084,0.371,0.082,0.502,0.011c0.521-0.281,0.646-2.084,0.184-2.464c-1.207-0.989-2.418-1.972-3.608-2.942
		C85.569,171.019,84.9,171.455,84.049,172.01z M149.425,178.343c1.902-1.343,3.736-2.628,5.552-3.939
		c0.14-0.101,0.245-0.406,0.202-0.575c-0.158-0.633-1.746-1.034-2.283-0.616c-0.79,0.614-1.529,1.332-2.402,1.794
		C149.17,175.708,148.644,176.601,149.425,178.343z M173.172,87.257c-0.009-0.075-0.019-0.15-0.027-0.225
		c-0.297,0.134-0.655,0.202-0.882,0.412c-1.923,1.78-3.79,3.623-5.741,5.371c-1.48,1.326-1.524,1.276-0.35,2.959
		C168.515,92.924,170.843,90.09,173.172,87.257z M148.689,173.894c1.172-0.837,2.146-1.492,3.054-2.23
		c0.129-0.105,0.045-0.727-0.138-0.917c-0.557-0.574-1.195-1.073-1.832-1.562c-0.519-0.398-1.083-0.739-1.921-1.303
		C148.149,170.02,148.396,171.791,148.689,173.894z M142.335,179.684c1.988,1.886,3.853,3.657,5.718,5.427
		c0.047-0.043,0.093-0.087,0.14-0.13c-1.081-2.138-2.162-4.275-3.304-6.533C144.044,178.856,143.263,179.234,142.335,179.684z
		 M92.3,166.339c-1.633,1.097-3.011,2.023-4.53,3.044c1.103,0.839,2.05,1.561,3.116,2.373
		C91.367,169.913,91.786,168.308,92.3,166.339z M115.729,225.374c-0.168,1.351,0.132,2.558,1.298,3.314
		c1.244,0.809,2.571,1.496,3.888,2.186c2.16,1.131,4.342,2.22,4.358,5.377c0.574-1.569,0.212-3.216-0.993-4.008
		c-1.673-1.1-3.433-2.087-5.223-2.987C117.376,228.412,116.003,227.401,115.729,225.374z M162.01,100.256
		c0.851-0.984,1.595-1.844,2.411-2.788c-0.292-0.341-0.78-0.909-1.338-1.558c-0.937,0.852-1.747,1.588-2.609,2.372
		C160.992,98.947,161.466,99.557,162.01,100.256z M83.12,88.065c0.468-0.374,0.884-0.705,1.214-0.968
		c-2.319-1.855-4.572-3.657-6.792-5.433C77.451,82.211,80.603,85.896,83.12,88.065z M87.251,92.846
		c0.574-0.547,1.105-1.052,1.623-1.545c-0.234-0.374-0.366-0.705-0.601-0.928c-0.249-0.235-0.656-0.31-0.891-0.554
		c-1.15-1.194-1.506-1.197-2.703,0.145C85.5,90.885,86.329,91.814,87.251,92.846z M123.003,29.855
		c-0.053,0.076-0.105,0.151-0.158,0.228c3.815,4.431,7.63,8.861,11.445,13.292c0.125-0.317,0.08-0.528-0.042-0.675
		c-1.289-1.543-2.588-3.077-3.886-4.613c-2.163-2.558-4.319-5.12-6.498-7.663C123.649,30.173,123.293,30.042,123.003,29.855z
		 M89.378,180.364c0.045,0.026,0.089,0.052,0.134,0.078c1.098-1.567,2.196-3.134,3.229-4.607c-0.257-0.538-0.459-0.961-0.669-1.4
		c-0.902,1.215-0.472-0.451-1.024-0.401C90.497,176.122,89.938,178.243,89.378,180.364z M83.242,167.406
		c-0.575-0.624-1.121-1.216-1.638-1.776c-0.432,0.297-0.851,0.487-1.13,0.801c-0.297,0.335-0.463,0.787-0.688,1.192
		C81.318,169.5,80.881,169.839,83.242,167.406z M159.754,167.011c0.442,0.578,0.857,1.121,1.375,1.799
		c0.684-0.787,1.374-1.539,2-2.34c0.111-0.142,0.049-0.621-0.092-0.723c-0.909-0.656-1.853-0.5-2.579,0.368
		C160.2,166.425,159.959,166.75,159.754,167.011z M154.475,171.982c1.523,1.841,1.871,1.996,3.547-0.27
		c-0.459-0.515-0.925-1.037-1.486-1.665C155.804,170.735,155.137,171.361,154.475,171.982z M163.72,162.575
		c0.369,0.426,0.738,0.851,1.107,1.276c-0.095,0.117-0.19,0.234-0.285,0.351c-0.285-0.225-0.541-0.518-0.862-0.656
		c-0.296-0.127-0.789-0.242-0.974-0.09c-0.362,0.296-0.569,0.78-0.84,1.187c0.055,0.115,0.11,0.23,0.166,0.345
		c1.121-0.051,2.241-0.102,3.092-0.14c0.308,0.417,0.556,0.755,0.946,1.286C166.344,164.786,165.124,162.991,163.72,162.575z
		 M71,159.08c1.583-0.804,3.087-1.555,4.569-2.347c0.116-0.062,0.123-0.6,0.104-0.604c-0.513-0.126-1.163-0.448-1.531-0.252
		c-0.69,0.367-1.245,1.015-1.808,1.592C71.89,157.922,71.519,158.446,71,159.08z M153.486,97.424
		c0.069,0.044,0.139,0.088,0.208,0.132c0.66-0.488,1.319-0.976,2.083-1.54c-0.506-0.422-0.917-0.766-1.456-1.216
		C154.008,95.783,153.748,96.604,153.486,97.424z M75.799,100.42c-0.041,0.104-0.082,0.209-0.123,0.313
		c0.675,0.282,1.384,0.504,2.017,0.86c1.053,0.591,1.032,0.628,1.458-0.549C78.015,100.833,76.907,100.627,75.799,100.42z
		 M213.126,139.963c0.049,0.015,0.099,0.03,0.148,0.045c0-2.522,0-5.044,0-7.566c-0.05-0.004-0.099-0.008-0.148-0.012
		C213.126,134.941,213.126,137.452,213.126,139.963z M169.449,113.361c0.471-0.459,0.829-0.809,1.096-1.069
		c-0.13-0.508-0.239-0.936-0.367-1.437C169.486,111.525,168.931,112.182,169.449,113.361z M102.765,108.613
		c0.295-0.239,0.63-0.51,0.965-0.781c-0.562-0.309-1.125-0.618-1.687-0.927c-0.045,0.099-0.09,0.197-0.135,0.295
		C102.147,107.595,102.386,107.989,102.765,108.613z M154.618,91.692c-0.539-0.791-0.906-1.329-1.281-1.879
		c-0.154,0.237-0.384,0.59-0.685,1.051C153.296,91.135,153.812,91.353,154.618,91.692z"/>
	<path fill-rule="evenodd" clip-rule="evenodd" d="M126.105,46.803c1.357,0.05,2.03,0.867,1.983,2.408
		c-0.046,1.493-0.998,2.626-2.174,2.589c-1.187-0.037-2.005-1.133-1.959-2.624C124.006,47.533,124.713,46.752,126.105,46.803z"/>
	<path fill-rule="evenodd" clip-rule="evenodd" d="M177.159,192.749c0.696-0.074,1.391-0.18,2.09-0.214
		c0.874-0.043,1.672,0.068,1.724,1.226c0.048,1.066-0.7,2.104-1.703,2.089c-2.286-0.035-2.889-0.393-2.087-3.123L177.159,192.749z"
		/>
	<path fill-rule="evenodd" clip-rule="evenodd" d="M184.263,77.205c-1.475-0.04-1.945-0.452-1.926-1.688
		c0.016-1.015,0.914-1.701,2.181-1.666c1.109,0.031,1.762,0.742,1.726,1.879C186.206,76.891,185.731,77.244,184.263,77.205z"/>
	<path fill-rule="evenodd" clip-rule="evenodd" d="M67.676,71.833c-0.548,0.154-1.091,0.414-1.645,0.44
		c-1.164,0.055-1.688-0.616-1.68-1.977c0.007-1.166,0.305-1.419,1.631-1.385c1.669,0.043,1.779,0.159,1.721,1.836
		c-0.013,0.374-0.038,0.748-0.058,1.123C67.645,71.872,67.676,71.833,67.676,71.833z"/>
	<path fill-rule="evenodd" clip-rule="evenodd" d="M59.637,190.724c-1.227-0.019-1.692-0.416-1.67-1.427
		c0.026-1.277,0.527-1.767,1.773-1.739c0.885,0.02,1.664,0.133,1.618,1.322C61.311,190.094,60.733,190.741,59.637,190.724z"/>
	<path fill-rule="evenodd" clip-rule="evenodd" d="M195.468,163.486c0.762-0.036,1.477,0.104,1.409,1.243
		c-0.058,0.983-0.593,1.394-1.752,1.386c-0.963-0.007-1.338-0.447-1.273-1.391C193.925,163.651,194.144,163.446,195.468,163.486z"/>
	<path fill-rule="evenodd" clip-rule="evenodd" d="M161.003,59.127c0.944-0.079,1.487,0.248,1.4,1.332
		c-0.091,1.146-0.4,1.463-1.496,1.471c-1.024,0.006-1.377-0.476-1.338-1.466C159.607,59.493,159.926,58.946,161.003,59.127z"/>
	<path fill-rule="evenodd" clip-rule="evenodd" d="M48.108,162.692c0.029,0.934-0.305,1.445-1.29,1.443
		c-0.911-0.002-1.399-0.303-1.37-1.3c0.026-0.883,0.264-1.416,1.29-1.377C47.62,161.491,48.213,161.707,48.108,162.692z"/>
	<path fill-rule="evenodd" clip-rule="evenodd" d="M91.879,57.604c-1.036,0.133-1.27-0.42-1.236-1.336
		c0.031-0.862,0.163-1.365,1.248-1.343c1.159,0.023,1.223,0.653,1.248,1.504C93.166,57.334,92.825,57.777,91.879,57.604z"/>
	<path fill-rule="evenodd" clip-rule="evenodd" d="M154.283,207.392c0.034,0.872-0.237,1.414-1.269,1.356
		c-0.872-0.048-1.419-0.254-1.354-1.289c0.054-0.863,0.245-1.435,1.285-1.362C153.797,206.157,154.43,206.342,154.283,207.392z"/>
	<path fill-rule="evenodd" clip-rule="evenodd" d="M49.846,96.071c-0.874,0.112-1.436-0.151-1.405-1.177
		c0.026-0.865,0.395-1.288,1.295-1.276c0.878,0.012,1.41,0.253,1.384,1.278C51.097,95.786,50.817,96.256,49.846,96.071z"/>
	<path fill-rule="evenodd" clip-rule="evenodd" d="M85.869,204.027c0.749-0.023,0.762,0.55,0.709,1.142
		c-0.073,0.819-0.328,1.397-1.364,1.314c-0.862-0.069-0.926-0.546-0.898-1.207C84.355,204.32,84.89,203.977,85.869,204.027z"/>
	<path fill-rule="evenodd" clip-rule="evenodd" d="M199.87,104.255c-0.13,0.901-0.229,1.362-1.054,1.292
		c-0.672-0.058-1.03-0.28-0.995-1.007c0.03-0.644,0.322-1.016,0.961-0.875C199.17,103.75,199.509,104.051,199.87,104.255z"/>
</g>
</svg>
